<svg xmlns="http://www.w3.org/2000/svg" viewBox="0 0 32 32" fill="none">
  <!-- top-left finder -->
  <rect x="2" y="2" width="12" height="12" rx="2" fill="#000"/>
  <rect x="4" y="4" width="8" height="8" rx="1" fill="#fff"/>
  <rect x="6" y="6" width="4" height="4" fill="#000"/>

  <!-- top-right finder -->
  <rect x="18" y="2" width="12" height="12" rx="2" fill="#000"/>
  <rect x="20" y="4" width="8" height="8" rx="1" fill="#fff"/>
  <rect x="22" y="6" width="4" height="4" fill="#000"/>

  <!-- bottom-left finder -->
  <rect x="2" y="18" width="12" height="12" rx="2" fill="#000"/>
  <rect x="4" y="20" width="8" height="8" rx="1" fill="#fff"/>
  <rect x="6" y="22" width="4" height="4" fill="#000"/>

  <!-- data dots -->
  <rect x="18" y="18" width="3" height="3" fill="#000"/>
  <rect x="23" y="18" width="3" height="3" fill="#000"/>
  <rect x="27" y="18" width="3" height="3" fill="#000"/>
  <rect x="18" y="23" width="3" height="3" fill="#000"/>
  <rect x="23" y="23" width="3" height="3" fill="#000"/>
  <rect x="27" y="27" width="3" height="3" fill="#000"/>
  <rect x="18" y="27" width="3" height="3" fill="#000"/>
</svg>
